<?xml version="1.0" encoding="UTF-8" standalone="no"?>
<svg
   xmlns:dc="http://purl.org/dc/elements/1.1/"
   xmlns:cc="http://creativecommons.org/ns#"
   xmlns:rdf="http://www.w3.org/1999/02/22-rdf-syntax-ns#"
   xmlns:svg="http://www.w3.org/2000/svg"
   xmlns="http://www.w3.org/2000/svg"
   xmlns:sodipodi="http://sodipodi.sourceforge.net/DTD/sodipodi-0.dtd"
   xmlns:inkscape="http://www.inkscape.org/namespaces/inkscape"
   width="16"
   height="16"
   fill="white"
   class="bi bi-brightness-low-fill"
   viewBox="0 0 16 16"
   version="1.1"
   id="svg1571"
   sodipodi:docname="brightness-low-fill.svg"
   inkscape:version="1.0.2 (e86c870879, 2021-01-15)">
  <metadata
     id="metadata1577">
    <rdf:RDF>
      <cc:Work
         rdf:about="">
        <dc:format>image/svg+xml</dc:format>
        <dc:type
           rdf:resource="http://purl.org/dc/dcmitype/StillImage" />
      </cc:Work>
    </rdf:RDF>
  </metadata>
  <defs
     id="defs1575" />
  <sodipodi:namedview
     pagecolor="#ffffff"
     bordercolor="#666666"
     borderopacity="1"
     objecttolerance="10"
     gridtolerance="10"
     guidetolerance="10"
     inkscape:pageopacity="0"
     inkscape:pageshadow="2"
     inkscape:window-width="1920"
     inkscape:window-height="1011"
     id="namedview1573"
     showgrid="false"
     inkscape:snap-text-baseline="true"
     inkscape:zoom="49.625"
     inkscape:cx="4.1209068"
     inkscape:cy="7.5245592"
     inkscape:window-x="0"
     inkscape:window-y="0"
     inkscape:window-maximized="1"
     inkscape:current-layer="svg1571" />
  <path
     d="M12 8a4 4 0 1 1-8 0 4 4 0 0 1 8 0zM8.5 2.5a.5.5 0 1 1-1 0 .5.5 0 0 1 1 0zm0 11a.5.5 0 1 1-1 0 .5.5 0 0 1 1 0zm5-5a.5.5 0 1 1 0-1 .5.5 0 0 1 0 1zm-11 0a.5.5 0 1 1 0-1 .5.5 0 0 1 0 1zm9.743-4.036a.5.5 0 1 1-.707-.707.5.5 0 0 1 .707.707zm-7.779 7.779a.5.5 0 1 1-.707-.707.5.5 0 0 1 .707.707zm7.072 0a.5.5 0 1 1 .707-.707.5.5 0 0 1-.707.707zM3.757 4.464a.5.5 0 1 1 .707-.707.5.5 0 0 1-.707.707z"
     id="path1569" />
</svg>
