<?xml version="1.0" encoding="UTF-8" standalone="no"?>
<svg
   xmlns:dc="http://purl.org/dc/elements/1.1/"
   xmlns:cc="http://creativecommons.org/ns#"
   xmlns:rdf="http://www.w3.org/1999/02/22-rdf-syntax-ns#"
   xmlns:svg="http://www.w3.org/2000/svg"
   xmlns="http://www.w3.org/2000/svg"
   xmlns:xlink="http://www.w3.org/1999/xlink"
   width="58.792702"
   height="57.970001"
   version="1.1"
   viewBox="0 0 58.792702 57.970001"
   id="svg8079">
  <metadata
     id="metadata8035">
    <rdf:RDF>
      <cc:Work
         rdf:about="">
        <dc:format>image/svg+xml</dc:format>
        <dc:type
           rdf:resource="http://purl.org/dc/dcmitype/StillImage" />
        <dc:title></dc:title>
      </cc:Work>
    </rdf:RDF>
  </metadata>
  <defs
     id="defs8049">
    <linearGradient
       id="linearGradient8208">
      <stop
         style="stop-color:#b71c1c;stop-opacity:1"
         offset="0"
         id="stop8204" />
      <stop
         style="stop-color:#f44336;stop-opacity:1"
         offset="1"
         id="stop8206" />
    </linearGradient>
    <style
       type="text/css"
       id="style8037" />
    <style
       type="text/css"
       id="style8039" />
    <filter
       id="filter1057"
       x="-0.027000001"
       y="-0.027000001"
       width="1.054"
       height="1.054"
       color-interpolation-filters="sRGB">
      <feGaussianBlur
         stdDeviation="0.61875"
         id="feGaussianBlur8041" />
    </filter>
    <linearGradient
       id="linearGradient1053"
       x1="-127"
       x2="-72"
       y1="60"
       y2="5"
       gradientTransform="translate(131.5,-0.51)"
       gradientUnits="userSpaceOnUse">
      <stop
         stop-color="#dee0e2"
         offset="0"
         id="stop8044" />
      <stop
         stop-color="#f1f3f5"
         stop-opacity=".99608"
         offset="1"
         id="stop8046" />
    </linearGradient>
    <linearGradient
       xlink:href="#linearGradient8208"
       id="linearGradient8214"
       x1="25.210049"
       y1="33.905949"
       x2="66.978775"
       y2="0.35756093"
       gradientUnits="userSpaceOnUse"
       gradientTransform="matrix(1.0131983,0,0,1.018985,-0.14478966,-0.03697557)" />
    <filter
       id="filter1057-2"
       x="-0.027000001"
       y="-0.027000001"
       width="1.054"
       height="1.054"
       color-interpolation-filters="sRGB">
      <feGaussianBlur
         stdDeviation="0.61875"
         id="feGaussianBlur8041-9" />
    </filter>
    <filter
       id="filter1057-2-2"
       x="-0.027000001"
       y="-0.027000001"
       width="1.054"
       height="1.054"
       color-interpolation-filters="sRGB">
      <feGaussianBlur
         stdDeviation="0.61875"
         id="feGaussianBlur8041-9-7" />
    </filter>
    <filter
       id="filter1057-2-2-0"
       x="-0.027000001"
       y="-0.027000001"
       width="1.054"
       height="1.054"
       color-interpolation-filters="sRGB">
      <feGaussianBlur
         stdDeviation="0.61875"
         id="feGaussianBlur8041-9-7-6" />
    </filter>
    <filter
       id="filter1057-2-2-0-6"
       x="-0.027000001"
       y="-0.027000001"
       width="1.054"
       height="1.054"
       color-interpolation-filters="sRGB">
      <feGaussianBlur
         stdDeviation="0.61875"
         id="feGaussianBlur8041-9-7-6-1" />
    </filter>
    <filter
       id="filter1057-2-2-0-6-7"
       x="-0.027000001"
       y="-0.027000001"
       width="1.054"
       height="1.054"
       color-interpolation-filters="sRGB">
      <feGaussianBlur
         stdDeviation="0.61875"
         id="feGaussianBlur8041-9-7-6-1-9" />
    </filter>
    <filter
       id="filter1057-2-2-0-6-7-0"
       x="-0.027000001"
       y="-0.027000001"
       width="1.054"
       height="1.054"
       color-interpolation-filters="sRGB">
      <feGaussianBlur
         stdDeviation="0.61875"
         id="feGaussianBlur8041-9-7-6-1-9-2" />
    </filter>
    <filter
       id="filter1057-2-2-0-6-7-0-7"
       x="-0.027000001"
       y="-0.027000001"
       width="1.054"
       height="1.054"
       color-interpolation-filters="sRGB">
      <feGaussianBlur
         stdDeviation="0.61875"
         id="feGaussianBlur8041-9-7-6-1-9-2-5" />
    </filter>
  </defs>
  <g
     id="layer3"
     transform="translate(-2.1922983,-3.015)">
    <rect
       x="4.5"
       y="4.5"
       width="55"
       height="55"
       ry="15"
       fill="#141414"
       filter="url(#filter1057)"
       opacity="0.3"
       stroke-linecap="round"
       stroke-width="2.7444"
       id="rect8055" />
  </g>
  <g
     id="layer2"
     style="display:inline"
     transform="translate(-2.1922983,-3.015)">
    <rect
       style="opacity:1;fill:url(#linearGradient8214);fill-opacity:1;stroke:none;stroke-width:1.18737;stroke-opacity:1"
       id="rect8083"
       width="54.966393"
       height="54.865658"
       x="4.5"
       y="4.6343417"
       rx="15.197974"
       ry="15.284774" />
  </g>
  <g
     id="layer5"
     transform="translate(-2.1922983,-3.015)">
    <rect
       x="4.5"
       y="4.5"
       width="55"
       height="55"
       fill="#141414"
       filter="url(#filter1057)"
       opacity="0.3"
       stroke-linecap="round"
       stroke-width="2.7444"
       id="rect8260-1-0"
       transform="matrix(0.05665234,0,0,0.03395835,4.4284632,16.325551)"
       style="display:inline;filter:url(#filter1057-2-2)" />
    <rect
       x="4.5"
       y="4.5"
       width="55"
       height="55"
       fill="#141414"
       filter="url(#filter1057)"
       opacity="0.3"
       stroke-linecap="round"
       stroke-width="2.7444"
       id="rect8260-1-0-2"
       transform="matrix(0.09899964,0,0,0.03392464,1.9055225,22.163708)"
       style="display:inline;filter:url(#filter1057-2-2-0)" />
    <rect
       x="4.5"
       y="4.5"
       width="55"
       height="55"
       fill="#141414"
       filter="url(#filter1057)"
       opacity="0.3"
       stroke-linecap="round"
       stroke-width="2.7444"
       id="rect8260-1-0-2-8"
       transform="matrix(0.09907199,0,0,0.03391894,1.8935963,27.976865)"
       style="display:inline;filter:url(#filter1057-2-2-0-6)" />
    <rect
       x="4.5"
       y="4.5"
       width="55"
       height="55"
       fill="#141414"
       filter="url(#filter1057)"
       opacity="0.3"
       stroke-linecap="round"
       stroke-width="2.7444"
       id="rect8260-1-0-2-8-2"
       transform="matrix(0.09820902,0,0,0.03392311,1.9575479,33.793952)"
       style="display:inline;filter:url(#filter1057-2-2-0-6-7)" />
    <rect
       x="4.5"
       y="4.5"
       width="55"
       height="55"
       fill="#141414"
       filter="url(#filter1057)"
       opacity="0.3"
       stroke-linecap="round"
       stroke-width="2.7444"
       id="rect8260-1-0-2-8-2-3"
       transform="matrix(0.09915759,0,0,0.03391852,1.9080886,39.661204)"
       style="display:inline;filter:url(#filter1057-2-2-0-6-7-0)" />
    <rect
       x="4.5"
       y="4.5"
       width="55"
       height="55"
       fill="#141414"
       filter="url(#filter1057)"
       opacity="0.3"
       stroke-linecap="round"
       stroke-width="2.7444"
       id="rect8260-1-0-2-8-2-3-9"
       transform="matrix(0.09888563,0,0,0.03404785,1.9145311,45.490237)"
       style="display:inline;filter:url(#filter1057-2-2-0-6-7-0-7)" />
  </g>
  <g
     id="layer4"
     transform="translate(-2.1922983,-3.015)">
    <rect
       style="display:inline;fill:#000000;fill-opacity:1;stroke:none"
       id="rect8087"
       width="5.4533606"
       height="1.8341138"
       x="2.2704897"
       y="16.421976" />
    <rect
       style="display:inline;fill:#000000;fill-opacity:1;stroke:none"
       id="rect8087-3"
       width="5.4533606"
       height="1.8341138"
       x="2.2704897"
       y="22.25609" />
    <rect
       style="display:inline;fill:#000000;fill-opacity:1;stroke:none"
       id="rect8087-3-6"
       width="5.4533606"
       height="1.8341138"
       x="2.2704906"
       y="28.090204" />
    <rect
       style="display:inline;fill:#000000;fill-opacity:1;stroke:none"
       id="rect8087-3-6-7"
       width="5.4533606"
       height="1.8341138"
       x="2.2704897"
       y="33.924316" />
    <rect
       style="display:inline;fill:#000000;fill-opacity:1;stroke:none"
       id="rect8087-3-6-7-5"
       width="5.4533606"
       height="1.8341138"
       x="2.2704906"
       y="39.75843" />
    <rect
       style="display:inline;fill:#000000;fill-opacity:1;stroke:none"
       id="rect8087-3-6-7-5-3"
       width="5.4533606"
       height="1.8341138"
       x="2.2704906"
       y="45.592545" />
  </g>
  <g
     id="layer6"
     transform="translate(-2.1922983,-3.015)">
    <text
       xml:space="preserve"
       style="font-size:40px;line-height:1.25;font-family:'Inter V';-inkscape-font-specification:'Inter V'"
       x="22.061523"
       y="43.347233"
       id="text8483"><tspan
         x="22.061523"
         y="43.347233"
         id="tspan8485" /></text>
    <g
       aria-label="P"
       id="text8491"
       style="font-style:normal;font-variant:normal;font-weight:normal;font-stretch:normal;font-size:49.6848px;line-height:1.25;font-family:'EB Garamond';-inkscape-font-specification:'EB Garamond, Normal';font-variant-ligatures:normal;font-variant-caps:normal;font-variant-numeric:normal;font-variant-east-asian:normal;fill:#e3c12a;fill-opacity:1;stroke-width:1.24211">
      <path
         d="m 21.817262,48.017089 q -0.645902,0 -1.043381,-0.149054 -0.397478,-0.09937 -0.397478,-0.397478 0,-0.596218 1.639598,-0.894327 1.888023,-0.347793 2.732664,-1.14275 0.894326,-0.794957 0.894326,-2.633295 V 21.8332 q 0,-2.235816 -0.596217,-3.428251 -0.546533,-1.192435 -2.434555,-1.540229 -0.844642,-0.149054 -1.24212,-0.397478 -0.397479,-0.248424 -0.397479,-0.596218 0,-0.298109 0.397479,-0.397478 0.397478,-0.149055 1.043381,-0.149055 1.341489,0 1.987392,0 0.695587,0 1.291804,0.04969 0.596218,0 1.589914,0 0.993696,0 1.987392,-0.04969 1.043381,-0.09937 1.937707,-0.149054 0.894326,-0.09937 1.589914,-0.09937 5.664067,0 9.092318,2.335186 3.477936,2.335186 3.477936,6.508709 0,3.030772 -1.192435,5.614382 -1.192436,2.533925 -3.676676,4.074154 -2.434555,1.540228 -6.260284,1.540228 -1.093066,0 -1.689283,-0.298108 -0.546533,-0.347794 -0.546533,-0.645903 0,-0.198739 0.248424,-0.447163 0.298109,-0.248424 0.546533,-0.248424 0.248424,0 0.745272,0.04969 0.546532,0.04968 1.540228,0.04968 2.981088,0 4.471632,-2.48424 1.540229,-2.48424 1.540229,-6.856503 0,-3.974784 -2.335186,-5.862806 -2.335185,-1.937707 -5.962175,-1.937707 -1.391175,0 -2.285501,0.496848 -0.894327,0.447163 -0.894327,1.589913 v 23.69965 q 0,1.788652 0.745272,2.881718 0.745272,1.093066 2.58361,1.440859 0.844642,0.149055 1.24212,0.347794 0.397478,0.198739 0.397478,0.546533 0,0.298108 -0.397478,0.397478 -0.397478,0.149054 -1.043381,0.149054 -1.341489,0 -2.086761,-0.09937 -0.695588,-0.09937 -1.291805,-0.149055 -0.546533,-0.09937 -1.490544,-0.09937 -1.24212,0 -2.235816,0.09937 -0.944011,0.04969 -1.937707,0.149055 -0.944011,0.09937 -2.285501,0.09937 z"
         style="font-style:normal;font-variant:normal;font-weight:normal;font-stretch:normal;font-size:49.6848px;font-family:'EB Garamond';-inkscape-font-specification:'EB Garamond, Normal';font-variant-ligatures:normal;font-variant-caps:normal;font-variant-numeric:normal;font-variant-east-asian:normal;stroke-width:1.24211"
         id="path163" />
    </g>
  </g>
  <g
     id="g8262"
     style="display:inline"
     transform="translate(-2.1922983,-3.015)" />
  <circle
     cx="-1250.8922"
     cy="-1244.615"
     r="0"
     fill="#5e4aa6"
     id="circle8051" />
  <circle
     cx="-151.34229"
     cy="20.84"
     r="0"
     fill="#5e4aa6"
     fill-rule="evenodd"
     id="circle8053" />
  <g
     id="layer1"
     transform="translate(-2.1922983,-3.015)" />
</svg>
