<?xml version="1.0" encoding="UTF-8" standalone="no"?>
<svg
   xmlns:dc="http://purl.org/dc/elements/1.1/"
   xmlns:cc="http://creativecommons.org/ns#"
   xmlns:rdf="http://www.w3.org/1999/02/22-rdf-syntax-ns#"
   xmlns:svg="http://www.w3.org/2000/svg"
   xmlns="http://www.w3.org/2000/svg"
   xmlns:sodipodi="http://sodipodi.sourceforge.net/DTD/sodipodi-0.dtd"
   xmlns:inkscape="http://www.inkscape.org/namespaces/inkscape"
   width="5.4232125"
   height="8.9759998"
   fill="black"
   class="bi bi-question"
   viewBox="0 0 5.4232125 8.9759998"
   version="1.1"
   id="svg68"
   sodipodi:docname="question.svg"
   inkscape:version="1.0.2 (e86c870879, 2021-01-15)">
  <metadata
     id="metadata74">
    <rdf:RDF>
      <cc:Work
         rdf:about="">
        <dc:format>image/svg+xml</dc:format>
        <dc:type
           rdf:resource="http://purl.org/dc/dcmitype/StillImage" />
        <dc:title></dc:title>
      </cc:Work>
    </rdf:RDF>
  </metadata>
  <defs
     id="defs72" />
  <sodipodi:namedview
     pagecolor="#ffffff"
     bordercolor="#666666"
     borderopacity="1"
     objecttolerance="10"
     gridtolerance="10"
     guidetolerance="10"
     inkscape:pageopacity="0"
     inkscape:pageshadow="2"
     inkscape:window-width="1535"
     inkscape:window-height="991"
     id="namedview70"
     showgrid="false"
     inkscape:zoom="35.090174"
     inkscape:cx="1.5616703"
     inkscape:cy="2.9503323"
     inkscape:window-x="26"
     inkscape:window-y="23"
     inkscape:window-maximized="0"
     inkscape:current-layer="svg68" />
  <path
     d="M 2.1264868e-4,2.286 A 0.237,0.237 0 0 0 0.24121265,2.533 H 1.0662126 c 0.138,0 0.248,-0.113 0.266,-0.25 0.09,-0.656 0.54,-1.134 1.342,-1.134 0.686,0 1.314,0.343 1.314,1.168 0,0.635 -0.374,0.927 -0.965,1.371 -0.673,0.489 -1.206,1.06 -1.168,1.987 l 0.003,0.217 a 0.25,0.25 0 0 0 0.25,0.246 h 0.811 a 0.25,0.25 0 0 0 0.25,-0.25 V 5.783 c 0,-0.718 0.273,-0.927 1.01,-1.486 0.609,-0.463 1.244,-0.977 1.244,-2.056 0,-1.511 -1.276,-2.241 -2.673,-2.241 -1.267,0 -2.65499995,0.59 -2.74999995132,2.286 z M 1.5572126,8.049 c 0,0.533 0.425,0.927 1.01,0.927 0.609,0 1.028,-0.394 1.028,-0.927 0,-0.552 -0.42,-0.94 -1.029,-0.94 -0.584,0 -1.009,0.388 -1.009,0.94 z"
     id="path66" />
</svg>
