<?xml version="1.0" encoding="UTF-8" standalone="no"?>
<svg width="2791.4268" height="1077.1429" viewBox="0 0 738.56214 284.99439" version="1.1" id="svg8" inkscape:version="1.1 (c68e22c387, 2021-05-23)" sodipodi:docname="BookLogoLargeWhite.svg" inkscape:export-filename="/home/luke/Documents/Projects/Pepys/src/main/resources/base/icons/appicons/hires/256.png" inkscape:export-xdpi="12.000001" inkscape:export-ydpi="12.000001" xmlns:inkscape="http://www.inkscape.org/namespaces/inkscape" xmlns:sodipodi="http://sodipodi.sourceforge.net/DTD/sodipodi-0.dtd" xmlns:xlink="http://www.w3.org/1999/xlink" xmlns="http://www.w3.org/2000/svg" xmlns:svg="http://www.w3.org/2000/svg" xmlns:rdf="http://www.w3.org/1999/02/22-rdf-syntax-ns#" xmlns:cc="http://creativecommons.org/ns#" xmlns:dc="http://purl.org/dc/elements/1.1/">
  <defs id="defs2">
    <linearGradient inkscape:collect="always" id="linearGradient1956">
      <stop style="stop-color:#f5cf13;stop-opacity:1" offset="0" id="stop1952"/>
      <stop style="stop-color:#d9aa11;stop-opacity:1" offset="1" id="stop1954"/>
    </linearGradient>
    <linearGradient inkscape:collect="always" id="linearGradient1590">
      <stop style="stop-color:#782d21;stop-opacity:1" offset="0" id="stop1586"/>
      <stop style="stop-color:#1a435f;stop-opacity:1" offset="1" id="stop1588"/>
    </linearGradient>
    <linearGradient inkscape:collect="always" id="linearGradient1499">
      <stop style="stop-color:#215578;stop-opacity:1;" offset="0" id="stop1495"/>
      <stop style="stop-color:#1a435f;stop-opacity:1" offset="1" id="stop1497"/>
    </linearGradient>
    <linearGradient inkscape:collect="always" id="linearGradient1477">
      <stop style="stop-color:#784421;stop-opacity:1;" offset="0" id="stop1473"/>
      <stop style="stop-color:#63361a;stop-opacity:1" offset="1" id="stop1475"/>
    </linearGradient>
    <linearGradient inkscape:collect="always" xlink:href="#linearGradient1590" id="linearGradient1501" x1="353.8165" y1="102.57489" x2="390.53195" y2="171.74309" gradientUnits="userSpaceOnUse"/>
    <linearGradient inkscape:collect="always" xlink:href="#linearGradient1477" id="linearGradient1503" x1="195.3381" y1="153.76071" x2="435.73093" y2="453.87381" gradientUnits="userSpaceOnUse" gradientTransform="translate(0,-19.18229)"/>
    <linearGradient inkscape:collect="always" xlink:href="#linearGradient1499" id="linearGradient1508" gradientUnits="userSpaceOnUse" x1="353.8165" y1="102.57489" x2="390.53195" y2="171.74309"/>
    <linearGradient inkscape:collect="always" xlink:href="#linearGradient1499" id="linearGradient1510" gradientUnits="userSpaceOnUse" x1="353.8165" y1="102.57489" x2="390.53195" y2="171.74309"/>
    <linearGradient inkscape:collect="always" xlink:href="#linearGradient1477" id="linearGradient1551" gradientUnits="userSpaceOnUse" gradientTransform="translate(1.7217426e-6,14.816664)" x1="195.3381" y1="153.76071" x2="435.73093" y2="453.87381"/>
    <linearGradient inkscape:collect="always" xlink:href="#linearGradient1956" id="linearGradient1958" x1="178.32916" y1="251.75542" x2="363.53729" y2="251.75542" gradientUnits="userSpaceOnUse"/>
    <clipPath clipPathUnits="userSpaceOnUse" id="clipPath2354">
      <path id="path2356" style="fill:#f4f4f4;fill-opacity:1;stroke:none;stroke-width:0.251596" d="m 143.8329,37.16356 h 276.01256 c 17.10894,0 30.88254,14.930898 30.88254,33.477338 V 479.69239 c 0,18.54644 -13.7736,33.47733 -30.88254,33.47733 H 143.8329 c -36.00772,0 -30.88252,4.15692 -30.88252,-33.47733 V 70.640898 c 0,-18.54644 13.77361,-33.477338 30.88252,-33.477338 z" sodipodi:nodetypes="sssssssss"/>
    </clipPath>
    <clipPath clipPathUnits="userSpaceOnUse" id="clipPath2358">
      <path id="path2360" style="fill:#f4f4f4;fill-opacity:1;stroke:none;stroke-width:0.251596" d="m 143.8329,37.16356 h 276.01256 c 17.10894,0 30.88254,14.930898 30.88254,33.477338 V 479.69239 c 0,18.54644 -13.7736,33.47733 -30.88254,33.47733 H 143.8329 c -36.00772,0 -30.88252,4.15692 -30.88252,-33.47733 V 70.640898 c 0,-18.54644 13.77361,-33.477338 30.88252,-33.477338 z" sodipodi:nodetypes="sssssssss"/>
    </clipPath>
    <clipPath clipPathUnits="userSpaceOnUse" id="clipPath2362">
      <path id="path2364" style="fill:#f4f4f4;fill-opacity:1;stroke:none;stroke-width:0.251596" d="m 143.8329,37.16356 h 276.01256 c 17.10894,0 30.88254,14.930898 30.88254,33.477338 V 479.69239 c 0,18.54644 -13.7736,33.47733 -30.88254,33.47733 H 143.8329 c -36.00772,0 -30.88252,4.15692 -30.88252,-33.47733 V 70.640898 c 0,-18.54644 13.77361,-33.477338 30.88252,-33.477338 z" sodipodi:nodetypes="sssssssss"/>
    </clipPath>
    <clipPath clipPathUnits="userSpaceOnUse" id="clipPath2366">
      <path id="path2368" style="fill:#f4f4f4;fill-opacity:1;stroke:none;stroke-width:0.251596" d="m 143.8329,37.16356 h 276.01256 c 17.10894,0 30.88254,14.930898 30.88254,33.477338 V 479.69239 c 0,18.54644 -13.7736,33.47733 -30.88254,33.47733 H 143.8329 c -36.00772,0 -30.88252,4.15692 -30.88252,-33.47733 V 70.640898 c 0,-18.54644 13.77361,-33.477338 30.88252,-33.477338 z" sodipodi:nodetypes="sssssssss"/>
    </clipPath>
    <clipPath clipPathUnits="userSpaceOnUse" id="clipPath2370">
      <path id="path2372" style="fill:#f4f4f4;fill-opacity:1;stroke:none;stroke-width:0.251596" d="m 143.8329,37.16356 h 276.01256 c 17.10894,0 30.88254,14.930898 30.88254,33.477338 V 479.69239 c 0,18.54644 -13.7736,33.47733 -30.88254,33.47733 H 143.8329 c -36.00772,0 -30.88252,4.15692 -30.88252,-33.47733 V 70.640898 c 0,-18.54644 13.77361,-33.477338 30.88252,-33.477338 z" sodipodi:nodetypes="sssssssss"/>
    </clipPath>
    <clipPath clipPathUnits="userSpaceOnUse" id="clipPath2398">
      <path id="path2400" style="display:inline;fill:#f4f4f4;fill-opacity:1;stroke:none;stroke-width:0.247398" d="m 154.55461,37.16356 h 266.88036 c 16.54284,0 29.86075,14.930901 29.86075,33.477359 V 479.69236 c 0,18.54647 -13.31791,33.47736 -29.86075,33.47736 H 154.55461 l -29.86074,-0.0687 V 70.640879 c 0,-18.546458 13.3179,-33.477358 29.86074,-33.477358 z" sodipodi:nodetypes="sssssccss"/>
    </clipPath>
    <clipPath clipPathUnits="userSpaceOnUse" id="clipPath2402">
      <path id="path2404" style="display:inline;fill:#f4f4f4;fill-opacity:1;stroke:none;stroke-width:0.24691" d="m 155.77549,37.16356 h 265.82687 c 16.47755,0 29.74288,14.930901 29.74288,33.477359 V 479.69236 c 0,18.54647 -13.26533,33.47736 -29.74288,33.47736 H 155.77549 l -29.74287,-0.0687 V 70.640879 c 0,-18.546458 13.26533,-33.477358 29.74287,-33.477358 z" sodipodi:nodetypes="sssssccss"/>
    </clipPath>
    <clipPath clipPathUnits="userSpaceOnUse" id="clipPath2406">
      <path id="path2408" style="display:inline;fill:#f4f4f4;fill-opacity:1;stroke:none;stroke-width:0.24692" d="M 151.68556,42.397106 H 420.5626 c 16.66662,0 30.08416,14.762767 30.08416,33.100379 V 479.9427 c 0,18.33762 -13.41754,33.10038 -30.08416,33.10038 H 151.68556 l -30.08414,-0.0679 V 75.497445 c 0,-18.337611 13.41754,-33.100378 30.08414,-33.100378 z" sodipodi:nodetypes="sssssccss"/>
    </clipPath>
    <clipPath clipPathUnits="userSpaceOnUse" id="clipPath2410">
      <path id="path2412" style="display:inline;fill:#f4f4f4;fill-opacity:1;stroke:none;stroke-width:0.250732" d="m 145.89743,37.16356 h 274.12075 c 16.99165,0 30.67087,14.930901 30.67087,33.477359 V 479.69236 c 0,18.54647 -13.67922,33.47736 -30.67087,33.47736 H 145.89743 l -30.67085,-0.0687 V 70.640879 c 0,-18.546458 13.67921,-33.477358 30.67085,-33.477358 z" sodipodi:nodetypes="sssssccss"/>
    </clipPath>
    <linearGradient inkscape:collect="always" xlink:href="#linearGradient1956" id="linearGradient383" gradientUnits="userSpaceOnUse" x1="178.32916" y1="251.75542" x2="363.53729" y2="251.75542"/>
  </defs>
  <sodipodi:namedview id="base" pagecolor="#ffffff" bordercolor="#666666" borderopacity="1.0" inkscape:pageopacity="0.0" inkscape:pageshadow="2" inkscape:zoom="0.175" inkscape:cx="-180" inkscape:cy="842.85714" inkscape:document-units="mm" inkscape:current-layer="layer1" inkscape:document-rotation="0" showgrid="false" units="px" inkscape:window-width="1920" inkscape:window-height="1017" inkscape:window-x="-8" inkscape:window-y="-8" inkscape:window-maximized="1" inkscape:pagecheckerboard="0" width="2216px" inkscape:snap-global="false" fit-margin-top="0" fit-margin-left="0" fit-margin-right="0" fit-margin-bottom="0"/>
  <metadata id="metadata5">
    <rdf:RDF>
      <cc:Work rdf:about="">
        <dc:format>image/svg+xml</dc:format>
        <dc:type rdf:resource="http://purl.org/dc/dcmitype/StillImage"/>
      </cc:Work>
    </rdf:RDF>
  </metadata>
  <g inkscape:label="5% guide" inkscape:groupmode="layer" id="layer1">
    <rect style="fill:#ffffff;fill-opacity:1;stroke-width:0.298879" id="rect9322" width="738.56586" height="284.99438" x="-0.0018275901" y="1.8073864e-08" ry="25.400028" rx="25.400028"/>
  </g>
  <g inkscape:groupmode="layer" id="layer7" inkscape:label="Back" style="display:inline"/>
  <g inkscape:groupmode="layer" id="layer8" inkscape:label="Pages" style="display:inline"/>
  <g inkscape:groupmode="layer" id="layer6" inkscape:label="Front" style="display:inline">
    <g inkscape:groupmode="layer" id="layer3" inkscape:label="top cover" style="display:inline;opacity:1"/>
    <g inkscape:groupmode="layer" id="layer5" inkscape:label="text" style="display:inline">
      <text xml:space="preserve" style="font-size:50.8px;line-height:1.25;font-family:'Roboto Mono';-inkscape-font-specification:'Roboto Mono';stroke-width:0.264583" x="131.49661" y="180.72014" id="text3047"><tspan sodipodi:role="line" id="tspan3045" x="131.49661" y="180.72014" style="stroke-width:0.264583"/></text>
    </g>
    <g inkscape:groupmode="layer" id="layer4" inkscape:label="bookmark" style="display:inline">
      <text xml:space="preserve" style="font-style:normal;font-variant:normal;font-weight:normal;font-stretch:normal;font-size:50.8px;line-height:1.25;font-family:'EB Garamond';-inkscape-font-specification:'EB Garamond';stroke-width:0.264583" x="266.8512" y="253.24405" id="text1453"><tspan sodipodi:role="line" id="tspan1451" x="266.8512" y="253.24405" style="font-style:normal;font-variant:normal;font-weight:normal;font-stretch:normal;font-family:'EB Garamond';-inkscape-font-specification:'EB Garamond';stroke-width:0.264583"/></text>
    </g>
    <g id="g381" transform="matrix(0.41884365,0,0,0.41884365,-9.3976211,24.614816)">
      <path id="rect1419-5" style="display:inline;fill:url(#linearGradient1551);fill-opacity:1;stroke:none;stroke-width:0.263372" d="m 119.69928,47.756683 h 302.46811 c 18.7488,0 33.84259,14.930289 33.84259,33.475983 V 490.26733 c 0,18.5457 -15.09379,33.47599 -33.84259,33.47599 H 119.69928 L 85.289725,523.71822 85.856689,81.232666 C 85.880452,62.686987 100.95048,47.756683 119.69928,47.756683 Z" sodipodi:nodetypes="sssssccss"/>
      <rect style="display:inline;opacity:1;fill:#61361c;fill-opacity:1;stroke:none;stroke-width:0.209805;stroke-opacity:1" id="rect2422" width="7.0299129" height="24.273767" x="97.28418" y="489.78238"/>
      <g id="g2420" transform="matrix(1.0062808,0,0,1.0020068,-5.7257312,-0.0745792)" style="display:inline">
        <path id="rect1419-5-6" style="fill:#f4f4f4;fill-opacity:1;stroke:none;stroke-width:0.252932" d="m 140.56443,37.163559 h 278.95214 c 17.29113,0 31.21143,14.930901 31.21143,33.477356 V 479.69237 c 0,18.54645 -13.9203,33.47735 -31.21143,33.47735 H 140.56443 L 109.353,513.10102 V 70.640875 c 0,-18.546455 13.92031,-33.477356 31.21143,-33.477356 z" sodipodi:nodetypes="sssssccss"/>
        <rect style="fill:#e6e6e6;fill-opacity:1;stroke:none;stroke-width:0.168568;stroke-opacity:1" id="rect2042-9" width="335.42322" height="4.2333331" x="113.05501" y="506.68402" clip-path="url(#clipPath2410)" transform="matrix(1.017625,0,0,1,-7.9044438,0)"/>
        <rect style="fill:#e6e6e6;fill-opacity:1;stroke:none;stroke-width:0.168568;stroke-opacity:1" id="rect2042-9-1" width="335.42322" height="4.2333331" x="113.05498" y="499.80481" clip-path="url(#clipPath2406)" transform="matrix(1.037471,0,0,1.011389,-16.804944,-5.7164064)"/>
        <rect style="fill:#e6e6e6;fill-opacity:1;stroke:none;stroke-width:0.172386;stroke-opacity:1" id="rect2042-9-1-5" width="350.79123" height="4.2333331" x="113.05499" y="492.9256" clip-path="url(#clipPath2402)" transform="matrix(1.0493752,0,0,1,-22.902506,0)"/>
        <rect style="fill:#e6e6e6;fill-opacity:1;stroke:none;stroke-width:0.172386;stroke-opacity:1" id="rect2042-9-1-5-0" width="350.79123" height="4.2333331" x="113.05499" y="486.31104" clip-path="url(#clipPath2398)" transform="matrix(1.0452329,0,0,1,-20.981131,0)"/>
        <rect style="fill:#e6e6e6;fill-opacity:1;stroke:none;stroke-width:0.172386;stroke-opacity:1" id="rect2042-9-1-5-0-9" width="350.79123" height="4.2333331" x="113.055" y="479.961" clip-path="url(#clipPath2354)"/>
      </g>
      <path id="rect1419" style="display:inline;opacity:1;fill:url(#linearGradient1503);fill-opacity:1;stroke:none;stroke-width:0.263372" d="m 119.69928,13.757728 h 302.46811 c 18.7488,0 33.84259,14.930288 33.84259,33.475982 v 409.03467 c 0,18.54569 -15.09379,33.47598 -33.84259,33.47598 H 119.69928 l -33.842591,0.0663 V 13.737894 Z" sodipodi:nodetypes="csssscccc"/>
      <g aria-label="P" id="text1458" style="font-size:368.207px;line-height:1.25;font-family:'Roboto Mono';-inkscape-font-specification:'Roboto Mono';display:inline;fill:url(#linearGradient1958);fill-opacity:1;stroke:none;stroke-width:1.91774">
        <path d="m 189.00717,373.81604 q -4.78669,0 -7.73234,-1.10462 -2.94566,-0.73641 -2.94566,-2.94566 0,-4.41848 12.15083,-6.62772 13.99187,-2.57745 20.25139,-8.46876 6.62772,-5.89131 6.62772,-19.51497 V 179.77095 q 0,-16.56931 -4.41848,-25.40628 -4.05028,-8.83697 -18.04214,-11.41442 -6.25952,-1.10462 -9.20518,-2.94565 -2.94566,-1.84104 -2.94566,-4.41849 0,-2.20924 2.94566,-2.94565 2.94566,-1.10463 7.73235,-1.10463 9.94159,0 14.72828,0 5.1549,0 9.57338,0.36821 4.41848,0 11.78262,0 7.36414,0 14.72828,-0.36821 7.73235,-0.73641 14.36008,-1.10462 6.62772,-0.73641 11.78262,-0.73641 41.9756,0 67.38188,17.30573 25.77449,17.30573 25.77449,48.23512 0,22.46062 -8.83697,41.60739 -8.83696,18.77855 -27.24731,30.19297 -18.04215,11.41442 -46.39409,11.41442 -8.10055,0 -12.51903,-2.20924 -4.05028,-2.57745 -4.05028,-4.7867 0,-1.47282 1.84103,-3.31386 2.20925,-1.84103 4.05028,-1.84103 1.84104,0 5.52311,0.3682 4.05027,0.36821 11.41441,0.36821 22.09242,0 33.13863,-18.41035 11.41442,-18.41035 11.41442,-50.81257 0,-29.45656 -17.30573,-43.44842 -17.30573,-14.36007 -44.18484,-14.36007 -10.3098,0 -16.93752,3.68207 -6.62773,3.31386 -6.62773,11.78262 v 175.63474 q 0,13.25545 5.52311,21.35601 5.5231,8.10055 19.14676,10.678 6.25952,1.10462 9.20518,2.57745 2.94565,1.47283 2.94565,4.05027 0,2.20925 -2.94565,2.94566 -2.94566,1.10462 -7.73235,1.10462 -9.94159,0 -15.46469,-0.73641 -5.1549,-0.73642 -9.57339,-1.10462 -4.05027,-0.73642 -11.04621,-0.73642 -9.20517,0 -16.56931,0.73642 -6.99593,0.3682 -14.36007,1.10462 -6.99594,0.73641 -16.93753,0.73641 z" style="font-style:normal;font-variant:normal;font-weight:normal;font-stretch:normal;font-family:'EB Garamond';-inkscape-font-specification:'EB Garamond';fill:url(#linearGradient383);fill-opacity:1;stroke:none;stroke-width:1.91774" id="path1926"/>
      </g>
      <g id="g1493" style="display:inline;fill:url(#linearGradient1501);fill-opacity:1" transform="matrix(1,0,0,1.0026928,15.875004,-19.758654)">
        <rect style="fill:url(#linearGradient1508);fill-opacity:1;stroke:none;stroke-width:0.364671" id="rect1443" width="36.715336" height="89.604408" x="353.8165" y="33.406696"/>
        <path id="path1448" style="fill:url(#linearGradient1510);fill-opacity:1;stroke:none;stroke-width:0.179271" inkscape:transform-center-x="-0.2181614" inkscape:transform-center-y="-2.3287747" d="m 353.8165,123.01111 36.48958,-0.4218 0.22586,49.15378 -18.28206,-23.84349 -18.40319,23.07349 z" sodipodi:nodetypes="cccccc"/>
      </g>
      <rect style="display:inline;fill:#61361c;fill-opacity:1;stroke:none;stroke-width:0.909284;stroke-opacity:1" id="rect2422-7" width="6.7395844" height="475.57855" x="109.353" y="14.010726"/>
      <rect style="opacity:1;fill:#6a3b1c;fill-opacity:1;stroke:none;stroke-width:0.259566;stroke-opacity:1" id="rect2449" width="8.091116" height="475.60416" x="102.32309" y="13.985119"/>
    </g>
    <text xml:space="preserve" style="font-size:50.8px;line-height:1.25;font-family:Garamond;-inkscape-font-specification:Garamond;stroke-width:0.264583" x="227.54166" y="69.547623" id="text7317"><tspan sodipodi:role="line" id="tspan7315" style="stroke-width:0.264583" x="227.54166" y="69.547623"/></text>
    <g aria-label="Pepys: A Straightforward Markdown Journal" id="text1593" style="font-size:50.8px;line-height:1.25;font-family:'EB Garamond';-inkscape-font-specification:'EB Garamond';stroke-width:0.264583">
      <path d="m 204.96766,68.960443 h 7.11895 q 2.43085,-0.0248 4.58886,-0.74414 2.18282,-0.719336 3.81992,-2.083594 1.63711,-1.364258 2.57969,-3.348633 0.96738,-2.009179 0.96738,-4.613672 0,-2.604492 -0.96738,-4.613671 -0.94258,-2.00918 -2.57969,-3.373438 -1.6371,-1.364258 -3.81992,-2.083594 -2.15801,-0.719335 -4.58886,-0.768945 h -11.70782 v 36.115625 h 4.58887 z m 0,-3.770312 V 51.101069 h 7.11895 q 1.5875,0.0248 2.92695,0.520898 1.36426,0.496094 2.35644,1.413867 0.96739,0.917774 1.51309,2.232422 0.57051,1.314648 0.57051,2.951758 0,1.637109 -0.57051,2.926953 -0.5457,1.265039 -1.53789,2.158008 -0.99219,0.892968 -2.33164,1.389062 -1.33945,0.471289 -2.92695,0.496094 z" style="font-family:'Roboto Mono';-inkscape-font-specification:'Roboto Mono'" id="path981"/>
      <path d="m 242.29871,83.942474 q 3.91915,0 6.57325,-1.562695 2.6789,-1.5875 4.01836,-3.621484 l -2.80293,-2.182813 q -1.26504,1.63711 -3.175,2.629297 -1.90996,0.992188 -4.36563,0.992188 -1.86035,0 -3.39824,-0.694532 -1.53789,-0.694531 -2.6293,-1.909961 -1.0666,-1.141015 -1.68672,-2.629296 -0.59531,-1.488282 -0.76894,-3.447852 v -0.173633 h 19.17402 v -2.058789 q 0,-2.802929 -0.71933,-5.208984 -0.69454,-2.406055 -2.13321,-4.191992 -1.43867,-1.761133 -3.62148,-2.75332 -2.15801,-1.016993 -5.06016,-1.016993 -2.30683,0 -4.51445,0.942579 -2.18281,0.942578 -3.89434,2.70371 -1.73632,1.785938 -2.77812,4.365625 -1.0418,2.554883 -1.0418,5.804297 v 1.041797 q 0,2.80293 0.94258,5.18418 0.94258,2.38125 2.6293,4.117578 1.68672,1.736328 4.04316,2.703711 2.38125,0.967382 5.20898,0.967382 z M 241.7034,59.881928 q 1.76113,0 3.02617,0.644922 1.28985,0.644922 2.13321,1.686718 0.84336,1.041797 1.31465,2.480469 0.47128,1.413867 0.47128,2.654102 v 0.223242 h -14.43632 q 0.27285,-1.860352 0.94257,-3.274219 0.69454,-1.438672 1.68672,-2.430859 0.99219,-0.967383 2.23243,-1.463477 1.24023,-0.520898 2.62929,-0.520898 z" style="font-family:'Roboto Mono';-inkscape-font-specification:'Roboto Mono'" id="path983"/>
      <path d="m 260.90223,93.76513 h 4.58887 V 80.866693 q 0.49609,0.545703 1.0666,1.016992 0.57051,0.446485 1.21543,0.818555 1.0666,0.595312 2.38125,0.917773 1.33945,0.322461 2.87734,0.322461 2.53008,0 4.48965,-1.041797 1.98438,-1.041796 3.32383,-2.877343 1.33945,-1.835547 2.03398,-4.316016 0.69453,-2.505273 0.69453,-5.382617 v -0.520898 q 0,-3.001367 -0.69453,-5.506641 -0.69453,-2.530078 -2.03398,-4.34082 -1.33945,-1.810742 -3.32383,-2.827734 -1.98437,-1.016993 -4.56406,-1.016993 -1.46348,0 -2.75332,0.322461 -1.26504,0.297657 -2.30684,0.892969 -0.74414,0.396875 -1.38906,0.967383 -0.64492,0.545703 -1.19063,1.240234 l -0.22324,-2.926953 h -4.19199 z m 18.08262,-23.961327 v 0.520898 q 0,1.95957 -0.44649,3.745508 -0.42168,1.785937 -1.31465,3.150195 -0.89296,1.364258 -2.28203,2.182813 -1.38906,0.79375 -3.29902,0.79375 -1.19063,0 -2.18281,-0.297657 -0.96739,-0.297656 -1.76114,-0.818554 -0.69453,-0.446485 -1.24023,-1.091407 -0.5457,-0.644921 -0.96738,-1.389062 V 63.677045 q 0.47129,-0.843359 1.0914,-1.537891 0.62012,-0.694531 1.41387,-1.16582 0.71934,-0.471289 1.61231,-0.719336 0.91777,-0.248047 1.98437,-0.248047 1.93477,0 3.32383,0.79375 1.38906,0.79375 2.30683,2.133203 0.89297,1.364258 1.31465,3.150196 0.44649,1.761132 0.44649,3.720703 z" style="font-family:'Roboto Mono';-inkscape-font-specification:'Roboto Mono'" id="path985"/>
      <path d="m 293.57,94.286029 q 1.81074,0 3.19981,-0.669727 1.38906,-0.669726 2.43086,-1.661914 1.04179,-0.992187 1.76113,-2.158007 0.74414,-1.165821 1.21543,-2.207618 L 315.795,56.607709 h -5.13457 l -6.92051,17.412891 -1.26504,3.150195 -1.19062,-3.249414 -7.36699,-17.313672 h -5.13457 l 11.55898,25.573633 -1.83555,3.571875 q -0.24804,0.496093 -0.69453,1.265039 -0.42168,0.768945 -1.01699,1.488281 -0.62012,0.719336 -1.41387,1.240234 -0.76894,0.520899 -1.71152,0.520899 -0.34727,0 -0.96738,-0.04961 -0.59532,-0.0248 -1.21543,-0.07441 l -0.74414,3.745508 q 0.44648,0.09922 1.31465,0.248047 0.86816,0.148828 1.51308,0.148828 z" style="font-family:'Roboto Mono';-inkscape-font-specification:'Roboto Mono'" id="path987"/>
      <path d="m 339.73153,76.327435 q 0,0.644922 -0.24805,1.21543 -0.24805,0.570508 -0.71934,1.041797 -0.76894,0.768945 -2.1332,1.21543 -1.36426,0.421679 -3.1998,0.421679 -1.16582,0 -2.35645,-0.248047 -1.19062,-0.248046 -2.15801,-0.843359 -0.99219,-0.595312 -1.66191,-1.562695 -0.64492,-0.967383 -0.74414,-2.38125 h -4.58887 q 0,1.711523 0.76895,3.299023 0.79375,1.5875 2.28203,2.778125 1.46347,1.21543 3.59668,1.95957 2.1332,0.719336 4.86172,0.719336 2.38125,0 4.39042,-0.570507 2.00918,-0.570508 3.44786,-1.612305 1.43867,-1.041797 2.23242,-2.505274 0.81855,-1.463476 0.81855,-3.249414 0,-1.661914 -0.71933,-2.926953 -0.69453,-1.265039 -2.03399,-2.232421 -1.33945,-0.942579 -3.29902,-1.612305 -1.95957,-0.694531 -4.44004,-1.21543 -1.88516,-0.37207 -3.12539,-0.768945 -1.21543,-0.396875 -1.93477,-0.892969 -0.74414,-0.496094 -1.04179,-1.116211 -0.29766,-0.620117 -0.29766,-1.413867 0,-0.768945 0.37207,-1.488281 0.37207,-0.719336 1.11621,-1.265039 0.71934,-0.545703 1.81074,-0.868164 1.11622,-0.322461 2.57969,-0.322461 1.41387,0 2.53008,0.396875 1.14102,0.396875 1.93477,1.041797 0.79375,0.644922 1.24023,1.488281 0.44648,0.818555 0.44648,1.686719 h 4.58887 q 0,-1.761133 -0.76894,-3.274219 -0.74414,-1.537891 -2.13321,-2.678906 -1.38906,-1.141016 -3.37343,-1.785938 -1.98438,-0.644922 -4.46485,-0.644922 -2.30683,0 -4.2416,0.620118 -1.90996,0.620117 -3.29902,1.686718 -1.38907,1.066602 -2.15801,2.505274 -0.76895,1.413867 -0.76895,3.050976 0,1.661914 0.74414,2.926953 0.74415,1.240235 2.1084,2.158008 1.33946,0.942578 3.22461,1.612305 1.90996,0.669726 4.2168,1.141015 1.88516,0.372071 3.15019,0.84336 1.26504,0.446484 2.03399,0.992187 0.76894,0.545703 1.0914,1.21543 0.32247,0.644922 0.32247,1.463476 z" style="font-family:'Roboto Mono';-inkscape-font-specification:'Roboto Mono'" id="path989"/>
      <path d="m 361.60926,80.469818 q 0,1.438672 0.89297,2.455664 0.91777,0.992188 2.70371,0.992188 1.76113,0 2.70371,-0.992188 0.94258,-0.992187 0.94258,-2.455664 0,-1.488281 -0.94258,-2.505273 -0.91777,-1.041797 -2.70371,-1.041797 -1.81074,0 -2.70371,1.041797 -0.89297,1.041797 -0.89297,2.505273 z m 0,-21.728906 q 0,1.438672 0.89297,2.455664 0.91777,0.992188 2.70371,0.992188 1.76113,0 2.70371,-0.992188 0.94258,-0.992187 0.94258,-2.455664 0,-1.488281 -0.94258,-2.505273 -0.91777,-1.041797 -2.70371,-1.041797 -1.81074,0 -2.70371,1.041797 -0.89297,1.041797 -0.89297,2.505273 z" style="font-family:'Roboto Mono';-inkscape-font-specification:'Roboto Mono'" id="path991"/>
      <path d="m 217.19637,138.75696 2.85254,9.35137 h 4.56406 l -11.45976,-36.11562 h -3.84473 l -11.6582,36.11562 h 4.58886 l 2.90215,-9.35137 z m -10.81484,-3.99355 4.83691,-15.67656 4.7625,15.67656 z" style="font-family:'Roboto Mono';-inkscape-font-specification:'Roboto Mono'" id="path993"/>
      <path d="m 279.82821,138.98021 q 0,1.48828 -0.64493,2.57968 -0.64492,1.0666 -1.66191,1.76114 -1.01699,0.71933 -2.33164,1.0666 -1.28984,0.32246 -2.6293,0.32246 -1.68672,0 -3.12539,-0.44649 -1.41386,-0.47129 -2.50527,-1.38906 -1.09141,-0.89297 -1.78594,-2.18281 -0.69453,-1.31465 -0.91777,-3.00137 h -4.68809 q 0.0744,2.33164 1.01699,4.2416 0.96739,1.88516 2.6045,3.29903 1.83554,1.63711 4.31601,2.50527 2.50528,0.86816 5.08496,0.86816 2.15801,0 4.31602,-0.59531 2.15801,-0.62012 3.86953,-1.83555 1.71152,-1.19062 2.77812,-3.00136 1.09141,-1.81074 1.09141,-4.2416 0,-2.40606 -1.01699,-4.24161 -0.99219,-1.83554 -2.6293,-3.10058 -1.66191,-1.36426 -3.67109,-2.23242 -2.00918,-0.89297 -4.01836,-1.51309 -1.21543,-0.37207 -2.60449,-0.86816 -1.36426,-0.4961 -2.53008,-1.24024 -1.19063,-0.74414 -1.95957,-1.81074 -0.76895,-1.09141 -0.79375,-2.6541 0,-1.43867 0.57051,-2.53008 0.59531,-1.09141 1.5875,-1.83555 0.96738,-0.74414 2.20761,-1.11621 1.26504,-0.37207 2.57969,-0.37207 1.63711,0 2.92695,0.5209 1.31465,0.49609 2.25723,1.41387 0.94258,0.91777 1.51309,2.20762 0.5705,1.26503 0.76894,2.82773 h 4.71289 q -0.0496,-2.48047 -1.0666,-4.48965 -1.01699,-2.00918 -2.70371,-3.42305 -1.68672,-1.41386 -3.86953,-2.18281 -2.18281,-0.79375 -4.53926,-0.79375 -2.1332,0 -4.2416,0.66973 -2.1084,0.64492 -3.77031,1.90996 -1.66192,1.26504 -2.70371,3.10059 -1.017,1.83554 -1.017,4.16718 0,2.33164 1.017,4.06797 1.04179,1.71152 2.6789,2.97656 1.61231,1.24024 3.57188,2.13321 1.98437,0.86816 3.89433,1.48828 1.31465,0.42168 2.72852,0.94258 1.43867,0.52089 2.6293,1.28984 1.19062,0.79375 1.93476,1.93477 0.76895,1.14101 0.76895,2.80293 z" style="font-family:'Roboto Mono';-inkscape-font-specification:'Roboto Mono'" id="path995"/>
      <path d="m 302.27645,114.77083 h -4.61368 v 6.49883 h -7.04453 v 3.54707 h 7.04453 v 14.58515 q 0,2.48047 0.64493,4.24161 0.66972,1.73632 1.81074,2.82773 1.14101,1.11621 2.6789,1.63711 1.5627,0.49609 3.34864,0.49609 1.0666,0 2.1332,-0.0992 1.09141,-0.0992 2.05879,-0.29765 0.96738,-0.17363 1.78594,-0.42168 0.81855,-0.27285 1.38906,-0.62012 l -0.64492,-3.24941 q -0.42168,0.0992 -1.09141,0.24804 -0.64492,0.12403 -1.38906,0.24805 -0.76895,0.12403 -1.5627,0.22324 -0.79375,0.0744 -1.53789,0.0744 -1.01699,0 -1.93476,-0.24805 -0.89297,-0.24805 -1.5875,-0.86816 -0.69453,-0.59532 -1.09141,-1.61231 -0.39687,-1.01699 -0.39687,-2.57969 v -14.58515 h 10.21953 v -3.54707 h -10.21953 z" style="font-family:'Roboto Mono';-inkscape-font-specification:'Roboto Mono'" id="path997"/>
      <path d="m 339.48348,120.77356 q -2.92695,0 -5.23379,1.28985 -2.28203,1.26504 -3.91914,3.47265 l -0.0248,-0.66972 -0.19843,-3.59668 h -4.36563 v 26.83867 h 4.61367 v -17.21445 q 0.44649,-1.24024 1.11622,-2.23242 0.69453,-1.017 1.6123,-1.71153 1.01699,-0.79375 2.38125,-1.19062 1.36426,-0.42168 3.05098,-0.42168 1.31464,0 2.50527,0.14883 1.21543,0.12402 2.55488,0.42168 l 0.62012,-4.48965 q -0.69453,-0.29766 -2.08359,-0.47129 -1.36426,-0.17364 -2.6293,-0.17364 z" style="font-family:'Roboto Mono';-inkscape-font-specification:'Roboto Mono'" id="path999"/>
      <path d="m 370.01805,148.10833 h 4.78731 v -0.39688 q -0.44649,-1.11621 -0.69454,-2.60449 -0.24804,-1.51308 -0.24804,-2.85254 v -12.47675 q 0,-2.25723 -0.81856,-3.94395 -0.81855,-1.68672 -2.23242,-2.82773 -1.43867,-1.11621 -3.39824,-1.66192 -1.95957,-0.57051 -4.2416,-0.57051 -2.50528,0 -4.48965,0.69454 -1.95957,0.69453 -3.32383,1.81074 -1.38906,1.14101 -2.1332,2.55488 -0.71934,1.41387 -0.74414,2.87734 h 4.61367 q 0,-0.84335 0.39687,-1.6123 0.42168,-0.79375 1.16582,-1.36426 0.74414,-0.57051 1.81075,-0.91777 1.0914,-0.34727 2.45566,-0.34727 1.46348,0 2.6293,0.37207 1.19062,0.37207 2.00918,1.0418 0.81855,0.69453 1.26504,1.66191 0.44648,0.96739 0.44648,2.18282 v 2.1084 h -5.01055 q -2.80293,0 -5.08496,0.5457 -2.25722,0.5457 -3.86953,1.63711 -1.6123,1.11621 -2.50527,2.77812 -0.86817,1.66192 -0.86817,3.86953 0,1.68672 0.64493,3.1502 0.66972,1.43867 1.88515,2.48047 1.19063,1.0666 2.90215,1.68672 1.73633,0.62011 3.86953,0.62011 1.31465,0 2.48047,-0.27285 1.16582,-0.27285 2.20762,-0.74414 1.01699,-0.47129 1.86035,-1.0914 0.86816,-0.62012 1.56269,-1.31465 0.0744,0.84336 0.22325,1.63711 0.17363,0.76894 0.44648,1.28984 z m -8.11113,-3.49746 q -1.33945,0 -2.35645,-0.34727 -1.01699,-0.34726 -1.68672,-0.96738 -0.66972,-0.59531 -1.01699,-1.43867 -0.32246,-0.84336 -0.32246,-1.83555 0,-1.04179 0.37207,-1.86035 0.39688,-0.81855 1.14102,-1.41387 1.04179,-0.84336 2.80293,-1.24023 1.78593,-0.42168 4.16718,-0.42168 h 4.26641 v 5.43223 q -0.39687,0.79375 -1.09141,1.53789 -0.69453,0.71933 -1.63711,1.28984 -0.96738,0.57051 -2.1332,0.91777 -1.16582,0.34727 -2.50527,0.34727 z" style="font-family:'Roboto Mono';-inkscape-font-specification:'Roboto Mono'" id="path1001"/>
      <path d="m 383.58621,121.26966 v 3.99355 h 9.12812 v 18.87637 h -9.12812 v 3.96875 h 22.47305 v -3.96875 h -8.75606 v -22.86992 z m 8.53281,-7.04453 q 0,1.11621 0.66973,1.86035 0.69453,0.74414 2.08359,0.74414 1.36426,0 2.05879,-0.74414 0.69453,-0.74414 0.69453,-1.86035 0,-0.62012 -0.19844,-1.14102 -0.19843,-0.5209 -0.59531,-0.86816 -0.32246,-0.32246 -0.81855,-0.4961 -0.4961,-0.19843 -1.14102,-0.19843 -0.64492,0 -1.16582,0.19843 -0.49609,0.17364 -0.81855,0.4961 -0.39688,0.37207 -0.59532,0.89297 -0.17363,0.52089 -0.17363,1.11621 z" style="font-family:'Roboto Mono';-inkscape-font-specification:'Roboto Mono'" id="path1003"/>
      <path d="m 412.50848,134.46575 v 0.5209 q 0,2.87734 0.74414,5.38262 0.74415,2.48047 2.13321,4.31601 1.36426,1.83555 3.34863,2.87735 1.98438,1.04179 4.44004,1.04179 1.46348,0 2.72851,-0.32246 1.26504,-0.29765 2.30684,-0.86816 0.66973,-0.37207 1.24024,-0.86817 0.59531,-0.49609 1.11621,-1.0914 v 2.30683 q 0,1.73633 -0.4961,3.07579 -0.49609,1.33945 -1.41386,2.23242 -0.94258,0.91777 -2.25723,1.38906 -1.31465,0.47129 -2.95176,0.47129 -0.91777,0 -1.83555,-0.19844 -0.91777,-0.17363 -1.83554,-0.59531 -0.91778,-0.42168 -1.81074,-1.14102 -0.89297,-0.69453 -1.73633,-1.71152 l -2.38125,2.75332 q 0.91777,1.31465 2.18281,2.20762 1.28984,0.89297 2.67891,1.41386 1.36425,0.54571 2.70371,0.76895 1.33945,0.24805 2.38125,0.24805 2.53007,0 4.61367,-0.74414 2.08359,-0.74414 3.59668,-2.18282 1.48828,-1.43867 2.30683,-3.49746 0.84336,-2.05879 0.84336,-4.71289 v -26.26816 h -4.16718 l -0.22325,2.92695 q -0.47129,-0.59531 -1.01699,-1.0914 -0.5209,-0.4961 -1.11621,-0.86817 -1.09141,-0.71933 -2.45566,-1.0914 -1.33946,-0.37208 -2.95176,-0.37208 -2.50527,0 -4.48965,1.017 -1.98437,1.01699 -3.37344,2.82773 -1.38906,1.81074 -2.1332,4.34082 -0.71934,2.50527 -0.71934,5.50664 z m 4.58887,0.5209 v -0.5209 q 0,-1.95957 0.39688,-3.7207 0.42168,-1.78594 1.31464,-3.1502 0.86817,-1.33945 2.23243,-2.1332 1.38906,-0.79375 3.32382,-0.79375 1.14102,0 2.0836,0.29766 0.94258,0.27285 1.71152,0.76894 0.76895,0.5209 1.36426,1.21543 0.59531,0.69453 1.0418,1.53789 v 12.30313 q -0.44649,0.86816 -1.0418,1.5875 -0.59531,0.71933 -1.33945,1.24023 -0.76895,0.5209 -1.73633,0.81856 -0.94258,0.27285 -2.13321,0.27285 -1.90996,0 -3.27421,-0.76895 -1.36426,-0.79375 -2.23243,-2.1332 -0.89296,-1.33945 -1.31464,-3.10059 -0.39688,-1.76113 -0.39688,-3.7207 z" style="font-family:'Roboto Mono';-inkscape-font-specification:'Roboto Mono'" id="path1005"/>
      <path d="m 448.42567,125.26321 v -15.25488 h -4.58887 v 38.1 h 4.58887 v -19.49648 q 0.49609,-0.79375 1.11621,-1.43868 0.64492,-0.66972 1.38906,-1.16582 0.94258,-0.64492 2.05879,-0.99218 1.11621,-0.34727 2.35644,-0.34727 1.51309,-0.0248 2.67891,0.42168 1.16582,0.42168 1.93476,1.28984 0.71934,0.79375 1.09141,2.00918 0.37207,1.19063 0.37207,2.77813 v 16.9416 h 4.58887 v -16.89199 q 0,-2.70371 -0.66973,-4.66328 -0.64492,-1.98438 -1.86035,-3.27422 -1.21543,-1.28985 -2.95176,-1.88516 -1.71152,-0.62012 -3.81992,-0.62012 -1.6123,0.0248 -3.05098,0.47129 -1.41386,0.44649 -2.60449,1.31465 -0.74414,0.5209 -1.41387,1.21543 -0.66972,0.66973 -1.21542,1.48828 z" style="font-family:'Roboto Mono';-inkscape-font-specification:'Roboto Mono'" id="path1007"/>
      <path d="m 485.18622,114.77083 h -4.61367 v 6.49883 h -7.04453 v 3.54707 h 7.04453 v 14.58515 q 0,2.48047 0.64492,4.24161 0.66973,1.73632 1.81074,2.82773 1.14102,1.11621 2.67891,1.63711 1.56269,0.49609 3.34863,0.49609 1.0666,0 2.13321,-0.0992 1.0914,-0.0992 2.05878,-0.29765 0.96739,-0.17363 1.78594,-0.42168 0.81856,-0.27285 1.38906,-0.62012 l -0.64492,-3.24941 q -0.42168,0.0992 -1.0914,0.24804 -0.64493,0.12403 -1.38907,0.24805 -0.76894,0.12403 -1.56269,0.22324 -0.79375,0.0744 -1.53789,0.0744 -1.01699,0 -1.93477,-0.24805 -0.89297,-0.24805 -1.5875,-0.86816 -0.69453,-0.59532 -1.0914,-1.61231 -0.39688,-1.01699 -0.39688,-2.57969 v -14.58515 h 10.21953 v -3.54707 h -10.21953 z" style="font-family:'Roboto Mono';-inkscape-font-specification:'Roboto Mono'" id="path1009"/>
      <path d="m 511.65282,148.10833 h 4.61367 v -23.2916 h 10.34355 v -3.54707 h -10.34355 v -1.88516 q 0,-1.68672 0.42168,-2.95176 0.44648,-1.26503 1.28984,-2.05878 0.79375,-0.76895 1.98438,-1.14102 1.21543,-0.39688 2.77812,-0.39688 1.53789,0 2.87735,0.27286 1.36425,0.24804 2.38125,0.59531 l 0.5457,-3.79512 q -0.64492,-0.17363 -1.26504,-0.29765 -0.62012,-0.14883 -1.24023,-0.27286 -0.94258,-0.17363 -1.90997,-0.27285 -0.96738,-0.12402 -1.95957,-0.12402 -2.38125,0 -4.31601,0.66973 -1.93477,0.66972 -3.29903,1.98437 -1.38906,1.31465 -2.158,3.27422 -0.74414,1.93476 -0.74414,4.51445 v 1.88516 h -7.3918 v 3.54707 h 7.3918 z" style="font-family:'Roboto Mono';-inkscape-font-specification:'Roboto Mono'" id="path1011"/>
      <path d="m 534.00183,134.44095 v 0.5457 q 0,2.90215 0.84336,5.38262 0.84336,2.48047 2.43086,4.31601 1.5627,1.83555 3.81992,2.87735 2.28204,1.04179 5.13457,1.04179 2.82774,0 5.08497,-1.04179 2.25722,-1.0418 3.84472,-2.87735 1.5627,-1.83554 2.40606,-4.31601 0.84336,-2.48047 0.84336,-5.38262 v -0.5457 q 0,-2.90215 -0.84336,-5.38262 -0.84336,-2.50527 -2.40606,-4.34082 -1.5875,-1.83555 -3.86953,-2.87734 -2.25723,-1.06661 -5.10976,-1.06661 -2.82774,0 -5.08497,1.06661 -2.25722,1.04179 -3.81992,2.87734 -1.5875,1.83555 -2.43086,4.34082 -0.84336,2.48047 -0.84336,5.38262 z m 4.58887,0.5457 v -0.5457 q 0,-1.95957 0.47129,-3.74551 0.47129,-1.81074 1.43867,-3.175 0.94258,-1.36426 2.35645,-2.15801 1.41386,-0.81855 3.32383,-0.81855 1.90996,0 3.32382,0.81855 1.43868,0.79375 2.40606,2.15801 0.94258,1.36426 1.41387,3.175 0.49609,1.78594 0.49609,3.74551 v 0.5457 q 0,1.98438 -0.47129,3.79512 -0.47129,1.78594 -1.41387,3.15019 -0.96738,1.36426 -2.40605,2.15801 -1.41387,0.79375 -3.29903,0.79375 -1.90996,0 -3.34863,-0.79375 -1.43867,-0.79375 -2.38125,-2.15801 -0.96738,-1.36425 -1.43867,-3.15019 -0.47129,-1.81074 -0.47129,-3.79512 z" style="font-family:'Roboto Mono';-inkscape-font-specification:'Roboto Mono'" id="path1013"/>
      <path d="m 583.36316,120.77356 q -2.92696,0 -5.23379,1.28985 -2.28203,1.26504 -3.91914,3.47265 l -0.0248,-0.66972 -0.19844,-3.59668 h -4.36562 v 26.83867 h 4.61367 v -17.21445 q 0.44649,-1.24024 1.11621,-2.23242 0.69453,-1.017 1.61231,-1.71153 1.01699,-0.79375 2.38125,-1.19062 1.36425,-0.42168 3.05097,-0.42168 1.31465,0 2.50528,0.14883 1.21543,0.12402 2.55488,0.42168 l 0.62012,-4.48965 q -0.69453,-0.29766 -2.0836,-0.47129 -1.36426,-0.17364 -2.62929,-0.17364 z" style="font-family:'Roboto Mono';-inkscape-font-specification:'Roboto Mono'" id="path1015"/>
      <path d="m 598.84127,148.10833 h 3.62149 l 4.14238,-16.44551 0.66973,-4.16719 0.69453,4.16719 4.19199,16.44551 h 3.62149 l 5.70507,-26.83867 h -4.06796 l -2.97657,17.11523 -0.66972,4.2168 -0.71934,-4.2168 -4.26641,-17.11523 h -2.95175 l -4.29121,17.11523 -0.66973,3.84473 -0.5457,-3.84473 -3.12539,-17.11523 h -4.06797 z" style="font-family:'Roboto Mono';-inkscape-font-specification:'Roboto Mono'" id="path1017"/>
      <path d="m 644.38271,148.10833 h 4.7873 v -0.39688 q -0.44648,-1.11621 -0.69453,-2.60449 -0.24805,-1.51308 -0.24805,-2.85254 v -12.47675 q 0,-2.25723 -0.81855,-3.94395 -0.81856,-1.68672 -2.23242,-2.82773 -1.43868,-1.11621 -3.39825,-1.66192 -1.95957,-0.57051 -4.2416,-0.57051 -2.50527,0 -4.48965,0.69454 -1.95957,0.69453 -3.32382,1.81074 -1.38907,1.14101 -2.13321,2.55488 -0.71933,1.41387 -0.74414,2.87734 h 4.61367 q 0,-0.84335 0.39688,-1.6123 0.42168,-0.79375 1.16582,-1.36426 0.74414,-0.57051 1.81074,-0.91777 1.09141,-0.34727 2.45566,-0.34727 1.46348,0 2.6293,0.37207 1.19063,0.37207 2.00918,1.0418 0.81856,0.69453 1.26504,1.66191 0.44648,0.96739 0.44648,2.18282 v 2.1084 h -5.01054 q -2.80293,0 -5.08496,0.5457 -2.25723,0.5457 -3.86953,1.63711 -1.61231,1.11621 -2.50528,2.77812 -0.86816,1.66192 -0.86816,3.86953 0,1.68672 0.64492,3.1502 0.66973,1.43867 1.88516,2.48047 1.19062,1.0666 2.90214,1.68672 1.73633,0.62011 3.86954,0.62011 1.31464,0 2.48046,-0.27285 1.16583,-0.27285 2.20762,-0.74414 1.01699,-0.47129 1.86035,-1.0914 0.86817,-0.62012 1.5627,-1.31465 0.0744,0.84336 0.22324,1.63711 0.17363,0.76894 0.44649,1.28984 z m -8.11114,-3.49746 q -1.33945,0 -2.35644,-0.34727 -1.01699,-0.34726 -1.68672,-0.96738 -0.66973,-0.59531 -1.01699,-1.43867 -0.32246,-0.84336 -0.32246,-1.83555 0,-1.04179 0.37207,-1.86035 0.39687,-0.81855 1.14101,-1.41387 1.0418,-0.84336 2.80293,-1.24023 1.78594,-0.42168 4.16719,-0.42168 h 4.2664 v 5.43223 q -0.39687,0.79375 -1.0914,1.53789 -0.69453,0.71933 -1.63711,1.28984 -0.96738,0.57051 -2.1332,0.91777 -1.16582,0.34727 -2.50528,0.34727 z" style="font-family:'Roboto Mono';-inkscape-font-specification:'Roboto Mono'" id="path1019"/>
      <path d="m 674.81805,120.77356 q -2.92695,0 -5.23379,1.28985 -2.28203,1.26504 -3.91914,3.47265 l -0.0248,-0.66972 -0.19844,-3.59668 h -4.36563 v 26.83867 h 4.61368 v -17.21445 q 0.44648,-1.24024 1.11621,-2.23242 0.69453,-1.017 1.6123,-1.71153 1.01699,-0.79375 2.38125,-1.19062 1.36426,-0.42168 3.05098,-0.42168 1.31465,0 2.50527,0.14883 1.21543,0.12402 2.55488,0.42168 l 0.62012,-4.48965 q -0.69453,-0.29766 -2.08359,-0.47129 -1.36426,-0.17364 -2.6293,-0.17364 z" style="font-family:'Roboto Mono';-inkscape-font-specification:'Roboto Mono'" id="path1021"/>
      <path d="m 686.84832,134.46575 v 0.5209 q 0,2.87734 0.76894,5.38262 0.76895,2.48047 2.15801,4.31601 1.38906,1.83555 3.34863,2.87735 1.98438,1.04179 4.41524,1.04179 2.48047,0 4.34082,-0.84336 1.86035,-0.84335 3.1998,-2.48046 l 0.19844,2.82773 h 4.2168 v -38.1 h -4.58887 v 13.91543 q -1.31465,-1.53789 -3.12539,-2.33164 -1.78594,-0.81856 -4.19199,-0.81856 -2.45567,0 -4.44004,1.017 -1.98438,1.01699 -3.37344,2.82773 -1.41387,1.81074 -2.18281,4.34082 -0.74414,2.50527 -0.74414,5.50664 z m 4.58887,0.5209 v -0.5209 q 0,-1.95957 0.42168,-3.7207 0.42167,-1.78594 1.31464,-3.1502 0.86817,-1.33945 2.23243,-2.1332 1.38906,-0.79375 3.32382,-0.79375 2.25723,0 3.77032,1.0666 1.51308,1.0418 2.40605,2.67891 v 12.45195 q -0.89297,1.76113 -2.40605,2.80293 -1.51309,1.0418 -3.81993,1.0418 -1.90996,0 -3.27421,-0.76895 -1.36426,-0.79375 -2.23243,-2.1332 -0.89297,-1.33945 -1.31464,-3.10059 -0.42168,-1.76113 -0.42168,-3.7207 z" style="font-family:'Roboto Mono';-inkscape-font-specification:'Roboto Mono'" id="path1023"/>
      <path d="m 204.99247,176.65465 h -5.68028 v 36.11563 h 4.46485 v -14.41152 l -0.37207,-14.56036 6.12675,18.92598 h 2.6293 l 6.67246,-19.44687 -0.37207,15.08125 v 14.41152 h 4.46484 v -36.11563 h -5.70507 l -6.35,18.05782 z" style="font-family:'Roboto Mono';-inkscape-font-specification:'Roboto Mono'" id="path1025"/>
      <path d="m 248.07821,212.77028 h 4.7873 v -0.39688 q -0.44648,-1.11621 -0.69453,-2.60449 -0.24805,-1.51308 -0.24805,-2.85254 v -12.47675 q 0,-2.25723 -0.81855,-3.94395 -0.81856,-1.68672 -2.23242,-2.82773 -1.43868,-1.11621 -3.39825,-1.66192 -1.95957,-0.57051 -4.2416,-0.57051 -2.50527,0 -4.48965,0.69454 -1.95957,0.69453 -3.32382,1.81074 -1.38907,1.14101 -2.13321,2.55488 -0.71933,1.41387 -0.74414,2.87734 h 4.61367 q 0,-0.84336 0.39688,-1.6123 0.42168,-0.79375 1.16582,-1.36426 0.74414,-0.57051 1.81074,-0.91777 1.09141,-0.34727 2.45567,-0.34727 1.46347,0 2.62929,0.37207 1.19063,0.37207 2.00918,1.0418 0.81856,0.69453 1.26504,1.66191 0.44649,0.96739 0.44649,2.18282 v 2.10839 h -5.01055 q -2.80293,0 -5.08496,0.54571 -2.25723,0.5457 -3.86953,1.63711 -1.61231,1.11621 -2.50528,2.77812 -0.86816,1.66192 -0.86816,3.86953 0,1.68672 0.64492,3.1502 0.66973,1.43867 1.88516,2.48047 1.19062,1.0666 2.90215,1.68672 1.73632,0.62011 3.86953,0.62011 1.31465,0 2.48047,-0.27285 1.16582,-0.27285 2.20761,-0.74414 1.017,-0.47129 1.86035,-1.09141 0.86817,-0.62011 1.5627,-1.31464 0.0744,0.84336 0.22324,1.63711 0.17364,0.76894 0.44649,1.28984 z m -8.11114,-3.49746 q -1.33945,0 -2.35644,-0.34727 -1.01699,-0.34726 -1.68672,-0.96738 -0.66973,-0.59531 -1.01699,-1.43867 -0.32246,-0.84336 -0.32246,-1.83555 0,-1.0418 0.37207,-1.86035 0.39687,-0.81855 1.14101,-1.41387 1.0418,-0.84336 2.80293,-1.24023 1.78594,-0.42168 4.16719,-0.42168 h 4.26641 v 5.43223 q -0.39688,0.79375 -1.09141,1.53789 -0.69453,0.71933 -1.63711,1.28984 -0.96738,0.57051 -2.1332,0.91777 -1.16582,0.34727 -2.50528,0.34727 z" style="font-family:'Roboto Mono';-inkscape-font-specification:'Roboto Mono'" id="path1027"/>
      <path d="m 278.51356,185.43551 q -2.92696,0 -5.23379,1.28985 -2.28203,1.26504 -3.91914,3.47265 l -0.0248,-0.66972 -0.19843,-3.59668 h -4.36563 v 26.83867 h 4.61367 v -17.21445 q 0.44649,-1.24024 1.11621,-2.23243 0.69454,-1.01699 1.61231,-1.71152 1.01699,-0.79375 2.38125,-1.19062 1.36426,-0.42168 3.05098,-0.42168 1.31464,0 2.50527,0.14882 1.21543,0.12403 2.55488,0.42168 l 0.62012,-4.48964 q -0.69453,-0.29766 -2.0836,-0.47129 -1.36425,-0.17364 -2.62929,-0.17364 z" style="font-family:'Roboto Mono';-inkscape-font-specification:'Roboto Mono'" id="path1029"/>
      <path d="m 299.44871,200.24391 9.84746,12.52637 h 5.8291 l -12.52636,-15.65176 10.86445,-11.18691 h -5.58105 l -8.80567,8.83047 -3.00137,3.22461 v -23.31641 h -4.61367 v 38.1 h 4.61367 v -9.27695 z" style="font-family:'Roboto Mono';-inkscape-font-specification:'Roboto Mono'" id="path1031"/>
      <path d="m 321.02879,199.1277 v 0.5209 q 0,2.87734 0.76895,5.38262 0.76894,2.48047 2.158,4.31601 1.38907,1.83555 3.34864,2.87735 1.98437,1.04179 4.41523,1.04179 2.48047,0 4.34082,-0.84336 1.86035,-0.84336 3.19981,-2.48046 l 0.19843,2.82773 h 4.2168 v -38.1 h -4.58887 v 13.91543 q -1.31464,-1.53789 -3.12539,-2.33164 -1.78593,-0.81856 -4.19199,-0.81856 -2.45566,0 -4.44004,1.017 -1.98437,1.01699 -3.37344,2.82773 -1.41386,1.81074 -2.18281,4.34082 -0.74414,2.50527 -0.74414,5.50664 z m 4.58887,0.5209 v -0.5209 q 0,-1.95957 0.42168,-3.7207 0.42168,-1.78594 1.31465,-3.1502 0.86816,-1.33945 2.23242,-2.1332 1.38906,-0.79375 3.32383,-0.79375 2.25722,0 3.77031,1.0666 1.51309,1.0418 2.40605,2.67891 v 12.45195 q -0.89296,1.76113 -2.40605,2.80293 -1.51309,1.0418 -3.81992,1.0418 -1.90996,0 -3.27422,-0.76895 -1.36426,-0.79375 -2.23242,-2.1332 -0.89297,-1.33945 -1.31465,-3.10059 -0.42168,-1.76113 -0.42168,-3.7207 z" style="font-family:'Roboto Mono';-inkscape-font-specification:'Roboto Mono'" id="path1033"/>
      <path d="m 351.09207,199.1029 v 0.5457 q 0,2.90215 0.84336,5.38262 0.84336,2.48047 2.43086,4.31601 1.5627,1.83555 3.81993,2.87735 2.28203,1.04179 5.13457,1.04179 2.82773,0 5.08496,-1.04179 2.25722,-1.0418 3.84472,-2.87735 1.5627,-1.83554 2.40606,-4.31601 0.84336,-2.48047 0.84336,-5.38262 v -0.5457 q 0,-2.90215 -0.84336,-5.38262 -0.84336,-2.50527 -2.40606,-4.34082 -1.5875,-1.83555 -3.86953,-2.87734 -2.25723,-1.06661 -5.10976,-1.06661 -2.82774,0 -5.08496,1.06661 -2.25723,1.04179 -3.81993,2.87734 -1.5875,1.83555 -2.43086,4.34082 -0.84336,2.48047 -0.84336,5.38262 z m 4.58887,0.5457 v -0.5457 q 0,-1.95957 0.47129,-3.74551 0.47129,-1.81074 1.43867,-3.175 0.94258,-1.36426 2.35645,-2.15801 1.41387,-0.81855 3.32383,-0.81855 1.90996,0 3.32382,0.81855 1.43868,0.79375 2.40606,2.15801 0.94258,1.36426 1.41387,3.175 0.49609,1.78594 0.49609,3.74551 v 0.5457 q 0,1.98437 -0.47129,3.79512 -0.47129,1.78593 -1.41387,3.15019 -0.96738,1.36426 -2.40605,2.15801 -1.41387,0.79375 -3.29902,0.79375 -1.90997,0 -3.34864,-0.79375 -1.43867,-0.79375 -2.38125,-2.15801 -0.96738,-1.36426 -1.43867,-3.15019 -0.47129,-1.81075 -0.47129,-3.79512 z" style="font-family:'Roboto Mono';-inkscape-font-specification:'Roboto Mono'" id="path1035"/>
      <path d="m 385.44656,212.77028 h 3.62148 l 4.14239,-16.44551 0.66972,-4.16719 0.69454,4.16719 4.19199,16.44551 h 3.62148 l 5.70508,-26.83867 h -4.06797 l -2.97656,17.11523 -0.66973,4.2168 -0.71933,-4.2168 -4.26641,-17.11523 h -2.95176 l -4.29121,17.11523 -0.66973,3.84473 -0.5457,-3.84473 -3.12539,-17.11523 h -4.06797 z" style="font-family:'Roboto Mono';-inkscape-font-specification:'Roboto Mono'" id="path1037"/>
      <path d="m 413.35184,212.77028 h 4.58887 v -19.24844 q 0.47129,-0.86816 1.09141,-1.5875 0.64492,-0.71933 1.38906,-1.26504 0.91777,-0.62011 2.00918,-0.96738 1.0914,-0.37207 2.35644,-0.37207 1.46348,0 2.57969,0.34727 1.14102,0.34726 1.93477,1.11621 0.76894,0.76894 1.16582,2.00918 0.39687,1.24023 0.39687,3.02617 v 16.9416 h 4.58887 v -17.04082 q 0,-2.67891 -0.66973,-4.61367 -0.64492,-1.95957 -1.86035,-3.22461 -1.21543,-1.26504 -2.95176,-1.86035 -1.71152,-0.59532 -3.81992,-0.59532 -1.56269,0.0248 -2.97656,0.47129 -1.38906,0.42168 -2.57969,1.21543 -0.79375,0.5209 -1.51308,1.24024 -0.69454,0.69453 -1.28985,1.53789 l -0.32246,-3.96875 h -4.11758 z" style="font-family:'Roboto Mono';-inkscape-font-specification:'Roboto Mono'" id="path1039"/>
      <path d="m 491.26337,176.65465 v 25.12715 q -0.0496,1.53789 -0.5457,2.92696 -0.47129,1.36425 -1.36426,2.40605 -0.91777,1.0418 -2.20762,1.66191 -1.28984,0.59532 -2.92695,0.59532 -1.5875,0 -2.87735,-0.5209 -1.26503,-0.5209 -2.18281,-1.48828 -0.91777,-0.94258 -1.46347,-2.23242 -0.5209,-1.28985 -0.59532,-2.80293 h -4.66328 q 0.22324,2.50527 1.14102,4.53925 0.91777,2.00918 2.45566,3.42305 1.51309,1.43867 3.57188,2.20762 2.08359,0.76894 4.61367,0.76894 2.50527,0 4.61367,-0.84336 2.1332,-0.86816 3.6959,-2.40605 1.56269,-1.51309 2.45566,-3.62149 0.91778,-2.10839 0.96739,-4.61367 v -25.12715 z" style="font-family:'Roboto Mono';-inkscape-font-specification:'Roboto Mono'" id="path1041"/>
      <path d="m 503.51688,199.1029 v 0.5457 q 0,2.90215 0.84336,5.38262 0.84336,2.48047 2.43086,4.31601 1.56269,1.83555 3.81992,2.87735 2.28203,1.04179 5.13457,1.04179 2.82773,0 5.08496,-1.04179 2.25723,-1.0418 3.84473,-2.87735 1.56269,-1.83554 2.40605,-4.31601 0.84336,-2.48047 0.84336,-5.38262 v -0.5457 q 0,-2.90215 -0.84336,-5.38262 -0.84336,-2.50527 -2.40605,-4.34082 -1.5875,-1.83555 -3.86953,-2.87734 -2.25723,-1.06661 -5.10977,-1.06661 -2.82773,0 -5.08496,1.06661 -2.25723,1.04179 -3.81992,2.87734 -1.5875,1.83555 -2.43086,4.34082 -0.84336,2.48047 -0.84336,5.38262 z m 4.58887,0.5457 v -0.5457 q 0,-1.95957 0.47129,-3.74551 0.47128,-1.81074 1.43867,-3.175 0.94258,-1.36426 2.35644,-2.15801 1.41387,-0.81855 3.32383,-0.81855 1.90996,0 3.32383,0.81855 1.43867,0.79375 2.40605,2.15801 0.94258,1.36426 1.41387,3.175 0.49609,1.78594 0.49609,3.74551 v 0.5457 q 0,1.98437 -0.47128,3.79512 -0.47129,1.78593 -1.41387,3.15019 -0.96738,1.36426 -2.40606,2.15801 -1.41386,0.79375 -3.29902,0.79375 -1.90996,0 -3.34863,-0.79375 -1.43867,-0.79375 -2.38125,-2.15801 -0.96739,-1.36426 -1.43867,-3.15019 -0.47129,-1.81075 -0.47129,-3.79512 z" style="font-family:'Roboto Mono';-inkscape-font-specification:'Roboto Mono'" id="path1043"/>
      <path d="m 552.97742,212.77028 h 4.16719 v -26.83867 h -4.61367 v 19.24844 q -0.37207,0.86816 -0.94258,1.6123 -0.54571,0.71934 -1.28985,1.24023 -0.89297,0.64493 -2.10839,1.017 -1.21543,0.34726 -2.75333,0.34726 -1.31464,0 -2.33164,-0.34726 -0.99218,-0.34727 -1.68671,-1.21543 -0.69454,-0.84336 -1.0418,-2.28203 -0.34727,-1.43868 -0.34727,-3.62149 v -15.99902 h -4.58886 v 15.94941 q 0,3.00137 0.64492,5.15938 0.66972,2.1332 1.88515,3.52226 1.21543,1.38906 2.92696,2.05879 1.71152,0.64492 3.81992,0.64492 2.6293,0 4.63848,-1.0914 2.00918,-1.11621 3.34863,-3.10059 z" style="font-family:'Roboto Mono';-inkscape-font-specification:'Roboto Mono'" id="path1045"/>
      <path d="m 583.36316,185.43551 q -2.92696,0 -5.23379,1.28985 -2.28203,1.26504 -3.91914,3.47265 l -0.0248,-0.66972 -0.19844,-3.59668 h -4.36562 v 26.83867 h 4.61367 v -17.21445 q 0.44649,-1.24024 1.11621,-2.23243 0.69453,-1.01699 1.61231,-1.71152 1.01699,-0.79375 2.38125,-1.19062 1.36425,-0.42168 3.05097,-0.42168 1.31465,0 2.50528,0.14882 1.21543,0.12403 2.55488,0.42168 l 0.62012,-4.48964 q -0.69453,-0.29766 -2.0836,-0.47129 -1.36426,-0.17364 -2.62929,-0.17364 z" style="font-family:'Roboto Mono';-inkscape-font-specification:'Roboto Mono'" id="path1047"/>
      <path d="m 596.26159,212.77028 h 4.58886 v -19.24844 q 0.47129,-0.86816 1.09141,-1.5875 0.64492,-0.71933 1.38906,-1.26504 0.91778,-0.62011 2.00918,-0.96738 1.09141,-0.37207 2.35645,-0.37207 1.46347,0 2.57969,0.34727 1.14101,0.34726 1.93476,1.11621 0.76895,0.76894 1.16582,2.00918 0.39688,1.24023 0.39688,3.02617 v 16.9416 h 4.58886 v -17.04082 q 0,-2.67891 -0.66972,-4.61367 -0.64492,-1.95957 -1.86035,-3.22461 -1.21543,-1.26504 -2.95176,-1.86035 -1.71153,-0.59532 -3.81992,-0.59532 -1.5627,0.0248 -2.97657,0.47129 -1.38906,0.42168 -2.57968,1.21543 -0.79375,0.5209 -1.51309,1.24024 -0.69453,0.69453 -1.28984,1.53789 l -0.32246,-3.96875 h -4.11758 z" style="font-family:'Roboto Mono';-inkscape-font-specification:'Roboto Mono'" id="path1049"/>
      <path d="m 644.38271,212.77028 h 4.7873 v -0.39688 q -0.44648,-1.11621 -0.69453,-2.60449 -0.24805,-1.51308 -0.24805,-2.85254 v -12.47675 q 0,-2.25723 -0.81855,-3.94395 -0.81856,-1.68672 -2.23242,-2.82773 -1.43868,-1.11621 -3.39825,-1.66192 -1.95957,-0.57051 -4.2416,-0.57051 -2.50527,0 -4.48965,0.69454 -1.95957,0.69453 -3.32382,1.81074 -1.38907,1.14101 -2.13321,2.55488 -0.71933,1.41387 -0.74414,2.87734 h 4.61367 q 0,-0.84336 0.39688,-1.6123 0.42168,-0.79375 1.16582,-1.36426 0.74414,-0.57051 1.81074,-0.91777 1.09141,-0.34727 2.45566,-0.34727 1.46348,0 2.6293,0.37207 1.19063,0.37207 2.00918,1.0418 0.81856,0.69453 1.26504,1.66191 0.44648,0.96739 0.44648,2.18282 v 2.10839 h -5.01054 q -2.80293,0 -5.08496,0.54571 -2.25723,0.5457 -3.86953,1.63711 -1.61231,1.11621 -2.50528,2.77812 -0.86816,1.66192 -0.86816,3.86953 0,1.68672 0.64492,3.1502 0.66973,1.43867 1.88516,2.48047 1.19062,1.0666 2.90214,1.68672 1.73633,0.62011 3.86954,0.62011 1.31464,0 2.48046,-0.27285 1.16583,-0.27285 2.20762,-0.74414 1.01699,-0.47129 1.86035,-1.09141 0.86817,-0.62011 1.5627,-1.31464 0.0744,0.84336 0.22324,1.63711 0.17363,0.76894 0.44649,1.28984 z m -8.11114,-3.49746 q -1.33945,0 -2.35644,-0.34727 -1.01699,-0.34726 -1.68672,-0.96738 -0.66973,-0.59531 -1.01699,-1.43867 -0.32246,-0.84336 -0.32246,-1.83555 0,-1.0418 0.37207,-1.86035 0.39687,-0.81855 1.14101,-1.41387 1.0418,-0.84336 2.80293,-1.24023 1.78594,-0.42168 4.16719,-0.42168 h 4.2664 v 5.43223 q -0.39687,0.79375 -1.0914,1.53789 -0.69453,0.71933 -1.63711,1.28984 -0.96738,0.57051 -2.1332,0.91777 -1.16582,0.34727 -2.50528,0.34727 z" style="font-family:'Roboto Mono';-inkscape-font-specification:'Roboto Mono'" id="path1051"/>
      <path d="m 657.95086,174.67028 v 3.99355 h 9.12813 v 30.1377 h -9.12813 v 3.96875 h 22.47305 v -3.96875 h -8.75605 v -34.13125 z" style="font-family:'Roboto Mono';-inkscape-font-specification:'Roboto Mono'" id="path1053"/>
    </g>
  </g>
</svg>